<mxfile host="app.diagrams.net" modified="2022-06-17T07:05:32.781Z" agent="5.0 (Windows NT 10.0; Win64; x64) AppleWebKit/537.36 (KHTML, like Gecko) Chrome/102.0.0.0 Safari/537.36" etag="WIB9oGHaWCLLfoLMQ6hz" version="20.0.1" type="github">
  <diagram id="C5RBs43oDa-KdzZeNtuy" name="Page-1">
    <mxGraphModel dx="1422" dy="762" grid="1" gridSize="10" guides="1" tooltips="1" connect="1" arrows="1" fold="1" page="1" pageScale="1" pageWidth="827" pageHeight="1169" math="0" shadow="0">
      <root>
        <mxCell id="WIyWlLk6GJQsqaUBKTNV-0" />
        <mxCell id="WIyWlLk6GJQsqaUBKTNV-1" parent="WIyWlLk6GJQsqaUBKTNV-0" />
        <mxCell id="FVfMStduUXk8W2AJcS0b-14" style="edgeStyle=orthogonalEdgeStyle;rounded=0;orthogonalLoop=1;jettySize=auto;html=1;entryX=0.5;entryY=0;entryDx=0;entryDy=0;" edge="1" parent="WIyWlLk6GJQsqaUBKTNV-1" source="FVfMStduUXk8W2AJcS0b-0" target="FVfMStduUXk8W2AJcS0b-13">
          <mxGeometry relative="1" as="geometry" />
        </mxCell>
        <mxCell id="FVfMStduUXk8W2AJcS0b-0" value="查询订单信息wsc_order_info用户信息wsc_vip_user&lt;br&gt;获取中智配置信息" style="rounded=0;whiteSpace=wrap;html=1;" vertex="1" parent="WIyWlLk6GJQsqaUBKTNV-1">
          <mxGeometry x="100" y="70" width="150" height="70" as="geometry" />
        </mxCell>
        <mxCell id="FVfMStduUXk8W2AJcS0b-2" value="返回信息&lt;br&gt;" style="rounded=0;whiteSpace=wrap;html=1;" vertex="1" parent="WIyWlLk6GJQsqaUBKTNV-1">
          <mxGeometry x="490" y="220" width="120" height="60" as="geometry" />
        </mxCell>
        <mxCell id="FVfMStduUXk8W2AJcS0b-4" value="Y" style="text;html=1;align=center;verticalAlign=middle;resizable=0;points=[];autosize=1;strokeColor=none;fillColor=none;" vertex="1" parent="WIyWlLk6GJQsqaUBKTNV-1">
          <mxGeometry x="310" y="230" width="20" height="20" as="geometry" />
        </mxCell>
        <mxCell id="FVfMStduUXk8W2AJcS0b-10" style="edgeStyle=orthogonalEdgeStyle;rounded=0;orthogonalLoop=1;jettySize=auto;html=1;entryX=0.5;entryY=0;entryDx=0;entryDy=0;" edge="1" parent="WIyWlLk6GJQsqaUBKTNV-1" source="FVfMStduUXk8W2AJcS0b-6" target="FVfMStduUXk8W2AJcS0b-9">
          <mxGeometry relative="1" as="geometry" />
        </mxCell>
        <mxCell id="FVfMStduUXk8W2AJcS0b-6" value="封装订单明细&lt;br&gt;运费也添加到明细" style="rounded=0;whiteSpace=wrap;html=1;" vertex="1" parent="WIyWlLk6GJQsqaUBKTNV-1">
          <mxGeometry x="115" y="390" width="120" height="60" as="geometry" />
        </mxCell>
        <mxCell id="FVfMStduUXk8W2AJcS0b-8" value="N" style="text;html=1;align=center;verticalAlign=middle;resizable=0;points=[];autosize=1;strokeColor=none;fillColor=none;" vertex="1" parent="WIyWlLk6GJQsqaUBKTNV-1">
          <mxGeometry x="190" y="330" width="20" height="20" as="geometry" />
        </mxCell>
        <mxCell id="FVfMStduUXk8W2AJcS0b-12" style="edgeStyle=orthogonalEdgeStyle;rounded=0;orthogonalLoop=1;jettySize=auto;html=1;" edge="1" parent="WIyWlLk6GJQsqaUBKTNV-1" source="FVfMStduUXk8W2AJcS0b-9" target="FVfMStduUXk8W2AJcS0b-11">
          <mxGeometry relative="1" as="geometry" />
        </mxCell>
        <mxCell id="FVfMStduUXk8W2AJcS0b-9" value="封装收货人信息" style="rounded=0;whiteSpace=wrap;html=1;" vertex="1" parent="WIyWlLk6GJQsqaUBKTNV-1">
          <mxGeometry x="115" y="525" width="120" height="60" as="geometry" />
        </mxCell>
        <mxCell id="FVfMStduUXk8W2AJcS0b-18" style="edgeStyle=orthogonalEdgeStyle;rounded=0;orthogonalLoop=1;jettySize=auto;html=1;" edge="1" parent="WIyWlLk6GJQsqaUBKTNV-1" source="FVfMStduUXk8W2AJcS0b-11" target="FVfMStduUXk8W2AJcS0b-17">
          <mxGeometry relative="1" as="geometry" />
        </mxCell>
        <mxCell id="FVfMStduUXk8W2AJcS0b-11" value="封装中智请求body&lt;br&gt;encoder" style="rounded=0;whiteSpace=wrap;html=1;" vertex="1" parent="WIyWlLk6GJQsqaUBKTNV-1">
          <mxGeometry x="115" y="680" width="120" height="60" as="geometry" />
        </mxCell>
        <mxCell id="FVfMStduUXk8W2AJcS0b-15" style="edgeStyle=orthogonalEdgeStyle;rounded=0;orthogonalLoop=1;jettySize=auto;html=1;entryX=0;entryY=0.5;entryDx=0;entryDy=0;" edge="1" parent="WIyWlLk6GJQsqaUBKTNV-1" source="FVfMStduUXk8W2AJcS0b-13" target="FVfMStduUXk8W2AJcS0b-2">
          <mxGeometry relative="1" as="geometry" />
        </mxCell>
        <mxCell id="FVfMStduUXk8W2AJcS0b-16" style="edgeStyle=orthogonalEdgeStyle;rounded=0;orthogonalLoop=1;jettySize=auto;html=1;entryX=0.5;entryY=0;entryDx=0;entryDy=0;" edge="1" parent="WIyWlLk6GJQsqaUBKTNV-1" source="FVfMStduUXk8W2AJcS0b-13" target="FVfMStduUXk8W2AJcS0b-6">
          <mxGeometry relative="1" as="geometry" />
        </mxCell>
        <mxCell id="FVfMStduUXk8W2AJcS0b-13" value="&lt;span style=&quot;&quot;&gt;是否存在第三方订单号&lt;/span&gt;" style="rhombus;whiteSpace=wrap;html=1;" vertex="1" parent="WIyWlLk6GJQsqaUBKTNV-1">
          <mxGeometry x="135" y="210" width="80" height="80" as="geometry" />
        </mxCell>
        <mxCell id="FVfMStduUXk8W2AJcS0b-20" style="edgeStyle=orthogonalEdgeStyle;rounded=0;orthogonalLoop=1;jettySize=auto;html=1;entryX=0.5;entryY=1;entryDx=0;entryDy=0;" edge="1" parent="WIyWlLk6GJQsqaUBKTNV-1" source="FVfMStduUXk8W2AJcS0b-17" target="FVfMStduUXk8W2AJcS0b-2">
          <mxGeometry relative="1" as="geometry">
            <Array as="points">
              <mxPoint x="550" y="710" />
            </Array>
          </mxGeometry>
        </mxCell>
        <mxCell id="FVfMStduUXk8W2AJcS0b-23" style="edgeStyle=orthogonalEdgeStyle;rounded=0;orthogonalLoop=1;jettySize=auto;html=1;entryX=0.5;entryY=1;entryDx=0;entryDy=0;" edge="1" parent="WIyWlLk6GJQsqaUBKTNV-1" source="FVfMStduUXk8W2AJcS0b-17" target="FVfMStduUXk8W2AJcS0b-22">
          <mxGeometry relative="1" as="geometry" />
        </mxCell>
        <mxCell id="FVfMStduUXk8W2AJcS0b-17" value="返回是否成功" style="rhombus;whiteSpace=wrap;html=1;" vertex="1" parent="WIyWlLk6GJQsqaUBKTNV-1">
          <mxGeometry x="360" y="670" width="80" height="80" as="geometry" />
        </mxCell>
        <mxCell id="FVfMStduUXk8W2AJcS0b-21" value="&lt;blockquote style=&quot;margin: 0 0 0 40px; border: none; padding: 0px;&quot;&gt;Y&lt;/blockquote&gt;" style="text;html=1;align=center;verticalAlign=middle;resizable=0;points=[];autosize=1;strokeColor=none;fillColor=none;" vertex="1" parent="WIyWlLk6GJQsqaUBKTNV-1">
          <mxGeometry x="460" y="585" width="60" height="20" as="geometry" />
        </mxCell>
        <mxCell id="FVfMStduUXk8W2AJcS0b-22" value="返回错误信息" style="rounded=0;whiteSpace=wrap;html=1;" vertex="1" parent="WIyWlLk6GJQsqaUBKTNV-1">
          <mxGeometry x="340" y="525" width="120" height="60" as="geometry" />
        </mxCell>
        <mxCell id="FVfMStduUXk8W2AJcS0b-24" value="N" style="text;html=1;align=center;verticalAlign=middle;resizable=0;points=[];autosize=1;strokeColor=none;fillColor=none;" vertex="1" parent="WIyWlLk6GJQsqaUBKTNV-1">
          <mxGeometry x="410" y="630" width="20" height="20" as="geometry" />
        </mxCell>
      </root>
    </mxGraphModel>
  </diagram>
</mxfile>
